<?xml version="1.0" encoding="UTF-8" standalone="no"?>
<!-- Uploaded to: SVG Repo, www.svgrepo.com, Generator: SVG Repo Mixer Tools -->

<svg
   fill="#000000"
   height="800px"
   width="800px"
   version="1.1"
   viewBox="0 0 235.32 235.32"
   enable-background="new 0 0 235.32 235.32"
   id="svg4"
   sodipodi:docname="bee.svg"
   inkscape:version="1.1.2 (0a00cf5339, 2022-02-04)"
   xmlns:inkscape="http://www.inkscape.org/namespaces/inkscape"
   xmlns:sodipodi="http://sodipodi.sourceforge.net/DTD/sodipodi-0.dtd"
   xmlns="http://www.w3.org/2000/svg"
   xmlns:svg="http://www.w3.org/2000/svg">
  <defs
     id="defs8" />
  <sodipodi:namedview
     id="namedview6"
     pagecolor="#ffffff"
     bordercolor="#666666"
     borderopacity="1.0"
     inkscape:pageshadow="2"
     inkscape:pageopacity="0.0"
     inkscape:pagecheckerboard="0"
     showgrid="false"
     inkscape:zoom="0.805"
     inkscape:cx="399.37888"
     inkscape:cy="398.75776"
     inkscape:window-width="1920"
     inkscape:window-height="1007"
     inkscape:window-x="0"
     inkscape:window-y="0"
     inkscape:window-maximized="1"
     inkscape:current-layer="svg4" />
  <path
     d="m204.738,118.109c-8.042-10.534-20.072-22.499-30.95-26.649-2.433-22.924-18.665-41.776-40.208-48.093l30.565-30.564c2.929-2.929 2.929-7.678 0-10.607-2.93-2.929-7.678-2.929-10.607,0l-35.786,35.785-35.476-35.474c-2.93-2.929-7.678-2.929-10.607,2.22045e-15-2.929,2.929-2.929,7.678 0,10.606l30.255,30.253c-21.521,6.312-37.741,25.132-40.199,48.024-10.928,4.082-23.052,16.124-31.142,26.719-8.511,11.147-22.788,33.768-22.788,60.021 0,18.913 15.388,34.299 34.301,34.299 16.951,0 31.063-12.365 33.807-28.547 8.722,9.659 20.739,16.275 34.26,18.085v25.854c0,4.142 3.357,7.5 7.5,7.5 4.143,0 7.5-3.358 7.5-7.5v-25.854c13.52-1.81 25.537-8.426 34.258-18.085 2.745,16.183 16.855,28.547 33.807,28.547 18.912,0 34.299-15.386 34.299-34.299-0.002-26.254-14.279-48.874-22.789-60.021zm-45.81-3.779h-82.533v-9.383h82.533v9.383zm-82.533,15h82.533v9.384h-82.533v-9.384zm41.357-73.241c20.243,0 37.123,14.623 40.663,33.858h-81.326c3.54-19.235 20.42-33.858 40.663-33.858zm-56.357,122.04c0,10.642-8.657,19.299-19.299,19.299-10.642,0-19.301-8.657-19.301-19.299 0-31.217 24.718-59.914 38.6-69.662v37.747 31.915zm56.267,9.352c-20.193,0-37.033-14.583-40.572-33.767h81.143c-3.54,19.184-20.378,33.767-40.571,33.767zm75.565,9.947c-10.642,0-19.299-8.657-19.299-19.299v-31.915-37.747c13.881,9.748 38.598,38.445 38.598,69.662-0.001,10.642-8.658,19.299-19.299,19.299z"
     id="path2" />
  <path
     style="fill:#ffff00;stroke-width:1.24224"
     d="M 260.86957,372.67081 V 357.76398 H 400 539.13043 v 14.90683 14.90683 H 400 260.86957 Z"
     id="path101"
     transform="scale(0.29415)" />
  <path
     style="fill:#ffff00;stroke-width:1.24224"
     d="M 260.86957,455.2795 V 439.75155 H 400 539.13043 v 15.52795 15.52795 H 400 260.86957 Z"
     id="path140"
     transform="scale(0.29415)" />
  <path
     style="fill:#ffff00;stroke-width:1.24224"
     d="m 391.30435,636.50534 c -12.55987,-1.34116 -24.02094,-3.55121 -32.91926,-6.34785 -36.2062,-11.37922 -67.01957,-38.16918 -83.88536,-72.93215 -5.3193,-10.96389 -11.14569,-28.04009 -11.14569,-32.66621 0,-1.26597 27.00405,-1.57776 136.64596,-1.57776 109.64191,0 136.64596,0.31179 136.64596,1.57776 0,4.62612 -5.82638,21.70232 -11.14569,32.66621 -19.50034,40.19321 -57.27595,69.2457 -99.94615,76.86669 -11.0592,1.97519 -27.50232,3.13381 -34.24977,2.41331 z"
     id="path179"
     transform="scale(0.29415)" />
  <path
     style="fill:#ffff00;stroke-width:1.24224"
     d="m 641.19416,668.28271 c -22.54916,-5.90652 -38.73257,-21.61018 -47.12073,-45.72387 -1.78491,-5.13113 -2.06267,-18.34685 -2.44534,-116.34766 -0.23744,-60.80745 -0.26767,-116.38928 -0.0672,-123.51516 l 0.36455,-12.95616 11.18012,9.36284 c 43.46925,36.4035 81.22229,89.02496 102.00612,142.17956 14.9782,38.30673 20.61604,84.03246 12.99865,105.42581 -7.44609,20.9123 -26.58649,37.69193 -48.22555,42.27745 -11.07062,2.34597 -17.66842,2.18434 -28.69065,-0.70281 z"
     id="path218"
     transform="scale(0.29415)" />
  <path
     style="fill:#ffff00;stroke-width:1.24224"
     d="m 263.35404,303.21761 c 0,-4.24466 7.17453,-24.45859 12.22907,-34.45485 27.61601,-54.61566 87.0364,-85.22307 146.67339,-75.55137 43.98544,7.13339 82.71,35.48174 102.56437,75.08233 4.81954,9.61283 10.47785,25.10297 12.37593,33.88019 l 0.73873,3.41615 H 400.64478 c -134.30174,0 -137.29074,-0.0516 -137.29074,-2.37245 z"
     id="path257"
     transform="scale(0.29415)" />
  <path
     style="fill:#ffff00;stroke-width:1.24224"
     d="M 129.53509,668.92989 C 108.52339,664.36434 89.589564,647.6418 81.675065,626.65947 79.197519,620.09117 78.892629,617.07948 78.976184,600 c 0.06203,-12.67927 0.823858,-23.07262 2.23086,-30.43478 8.900428,-46.57162 29.486066,-90.65806 63.064856,-135.06045 12.16056,-16.08032 47.96068,-52.99232 58.57938,-60.39875 l 5.95687,-4.15485 -0.42767,123.40951 c -0.46909,135.36684 0.0771,125.62766 -7.9768,142.21359 -4.30798,8.87161 -16.02066,20.9968 -25.43144,26.32712 -8.18883,4.63821 -23.8512,8.9485 -32.00325,8.80731 -3.13605,-0.0543 -9.18131,-0.85479 -13.4339,-1.77881 z"
     id="path296"
     transform="scale(0.29415)" />
</svg>
