<?xml version="1.0" encoding="UTF-8"?><svg id="Capa_2" xmlns="http://www.w3.org/2000/svg" xmlns:xlink="http://www.w3.org/1999/xlink" viewBox="0 0 375.39 113.64"><defs><style>.cls-1{fill:none;}.cls-2{fill:#fc6155;}.cls-3{clip-path:url(#clippath-1);}.cls-4{fill:#1a1a2e;}.cls-5{clip-path:url(#clippath);}</style><clipPath id="clippath"><rect class="cls-1" width="375.39" height="113.64"/></clipPath><clipPath id="clippath-1"><rect class="cls-1" width="113.64" height="113.64"/></clipPath></defs><g id="Capa_1"><g class="cls-5"><g class="cls-3"><rect class="cls-2" x="74.57" y="74.57" width="39.06" height="39.06" rx="19.53" ry="19.53"/><path class="cls-2" d="M110.59,38.56L35.51,113.64H0v-35.51l28.41-28.41h-3.55C11.13,49.72,0,38.59,0,24.86S11.13,0,24.86,0h71.43C105.87,0,113.64,7.77,113.64,17.35v13.85c0,2.76-1.1,5.4-3.05,7.36h0Z"/></g><path class="cls-4" d="M152.7,68.24l18.88-21.97h-18.3v-6.62h28.01v5.74l-18.88,21.98h18.88v6.62h-28.6v-5.74ZM185.17,56.92v-.1c0-9.77,7.71-17.76,18.3-17.76s18.2,7.9,18.2,17.66v.1c0,9.76-7.7,17.76-18.3,17.76s-18.2-7.89-18.2-17.66h0ZM213.76,56.92v-.1c0-5.89-4.32-10.79-10.4-10.79s-10.3,4.8-10.3,10.69v.1c0,5.89,4.31,10.79,10.4,10.79s10.3-4.8,10.3-10.69h0ZM226.52,56.92v-.1c0-9.77,7.71-17.76,18.3-17.76s18.2,7.9,18.2,17.66v.1c0,9.76-7.7,17.76-18.3,17.76s-18.2-7.89-18.2-17.66ZM255.11,56.92v-.1c0-5.89-4.31-10.79-10.4-10.79s-10.3,4.8-10.3,10.69v.1c0,5.89,4.31,10.79,10.4,10.79s10.3-4.8,10.3-10.69h0ZM267.87,56.92v-.1c0-9.77,7.36-17.76,17.91-17.76,6.47,0,10.35,2.16,13.54,5.3l-4.8,5.54c-2.64-2.41-5.34-3.87-8.78-3.87-5.79,0-9.96,4.8-9.96,10.69v.1c0,5.89,4.08,10.79,9.96,10.79,3.92,0,6.33-1.57,9.03-4.02l4.8,4.86c-3.53,3.77-7.46,6.14-14.08,6.14-10.11,0-17.61-7.79-17.61-17.66ZM305.08,39.65h7.55v13.58h13.93v-13.58h7.55v34.33h-7.55v-13.78h-13.93v13.78h-7.55v-34.33h0ZM353.71,39.41h6.97l14.71,34.58h-7.89l-3.14-7.7h-14.52l-3.14,7.7h-7.7l14.71-34.58ZM361.66,59.61l-4.56-11.13-4.56,11.13h9.13,0Z"/><rect class="cls-2" x="74.57" y="74.57" width="39.06" height="39.06" rx="19.53" ry="19.53"/></g></g></svg>
